#!OML:ASF H:\Terrain\Walking\May29\JustinRory\Justin.ASF
:FULLY-SPECIFIED
:DEGREES
817
root 7.49447 17.5249 -15.4922 -2.74275 -3.24584 -1.38308
lowerback 2.30121 -0.270957 -0.527656
upperback -1.56917 -0.299383 3.07668
thorax -2.88613 -0.106684 3.48229
lowerneck -15.0373 -2.94949 -9.26405
upperneck 18.6575 -3.08732 5.82662
head 8.52986 -1.52559 3.14008
rclavicle -1.14301e-014 -6.36111e-015
rhumerus 24.7734 17.1471 -48.0962
rradius 91.1639
rwrist 11.1646
rhand -18.8836 40.0779
rfingers 7.12502
rthumb 7.41751 10.228
lclavicle -1.14301e-014 -6.36111e-015
lhumerus 20.4264 -14.6965 57.5192
lradius 86.4353
lwrist -29.8914
lhand -25.1785 44.0243
lfingers 7.12502
lthumb 1.33915 73.9999
rfemur 0.880407 -3.37686 19.6879
rtibia 18.6212
rfoot -13.5419 -11.6134
rtoes -2.34872
lfemur 1.55293 0.750376 -14.6853
ltibia 19.4996
lfoot -15.9934 4.78499
ltoes -11.5117
818
root 7.49333 17.525 -15.4925 -2.83528 -3.09898 -1.07784
lowerback 2.39563 -0.209732 -0.809031
upperback -1.48153 -0.233253 2.90002
thorax -2.85268 -0.0710526 3.4548
lowerneck -15.123 -3.02244 -9.13153
upperneck 18.5256 -3.21668 5.86687
head 8.50943 -1.57021 3.11404
rclavicle 4.42296e-015 3.26007e-014
rhumerus 24.4645 16.7061 -48.3046
rradius 91.1204
rwrist 11.3797
rhand -19.0181 40.03
rfingers 7.12502
rthumb 7.28765 10.1755
lclavicle 4.42296e-015 3.26007e-014
lhumerus 20.7696 -14.8204 57.4439
lradius 86.3728
lwrist -29.8404
lhand -25.093 44.3256
lfingers 7.12502
lthumb 1.42177 74.3006
rfemur 0.996703 -3.5894 19.3168
rtibia 18.6123
rfoot -13.5204 -11.5112
rtoes -2.90943
lfemur 1.57024 0.744681 -15.0197
ltibia 19.5387
lfoot -16.0032 4.7099
ltoes -11.503
819
root 7.49012 17.5187 -15.4978 -2.88678 -3.13873 -1.19218
lowerback 2.53847 -0.22532 -0.740389
upperback -1.4695 -0.248878 2.96855
thorax -2.91986 -0.0788718 3.48909
lowerneck -14.8725 -2.97466 -9.4242
upperneck 18.2131 -3.15265 6.14804
head 8.36278 -1.53262 3.26367
rclavicle 1.02374e-014 -6.36111e-015
rhumerus 24.3908 16.6582 -48.3796
rradius 91.1342
rwrist 11.3328
rhand -19.1478 40.0139
rfingers 7.12502
rthumb 7.1625 10.1551
lclavicle 1.02374e-014 -6.36111e-015
lhumerus 20.6693 -14.5681 57.5048
lradius 86.4705
lwrist -29.6
lhand -24.8167 44.4463
lfingers 7.12502
lthumb 1.68857 74.4194
rfemur 1.0295 -3.4352 19.4698
rtibia 18.6377
rfoot -13.5592 -11.501
rtoes -1.79383
lfemur 1.62072 0.781415 -14.8663
ltibia 19.5838
lfoot -16.0369 4.59974
ltoes -11.0919
820
root 7.48616 17.5132 -15.5055 -2.87371 -3.20848 -1.4062
lowerback 2.6505 -0.236587 -0.569404
upperback -1.4917 -0.253609 3.04859
thorax -3.00607 -0.0826944 3.47708
lowerneck -14.7641 -2.95562 -9.63973
upperneck 18.1754 -3.13223 6.37655
head 8.33578 -1.51649 3.38009
rclavicle -2.13694e-015 -2.38542e-014
rhumerus 24.3512 16.6413 -48.4334
rradius 91.1896
rwrist 11.3534
rhand -19.2591 39.8905
rfingers 7.12502
rthumb 7.05502 10.0281
lclavicle -2.13694e-015 -2.38542e-014
lhumerus 20.4696 -14.2377 57.8599
lradius 86.5552
lwrist -29.4664
lhand -24.2855 44.2312
lfingers 7.12502
lthumb 2.20162 74.1996
rfemur 1.00736 -3.16528 19.7593
rtibia 18.636
rfoot -13.7106 -11.6177
rtoes -0.26601
lfemur 1.57871 0.88677 -14.5898
ltibia 19.6774
lfoot -16.1561 4.47917
ltoes -10.853
821
root 7.48229 17.5174 -15.5092 -2.83143 -3.22376 -1.29294
lowerback 2.66473 -0.231148 -0.73685
upperback -1.5143 -0.253084 3.02125
thorax -3.03701 -0.078724 3.54372
lowerneck -14.7038 -2.95581 -9.56402
upperneck 18.2184 -3.12275 6.20891
head 8.33506 -1.52492 3.31206
rclavicle 6.70898e-015 -7.95139e-016
rhumerus 24.2442 16.5412 -48.4835
rradius 91.2224
rwrist 11.5966
rhand -19.3817 39.7767
rfingers 7.12502
rthumb 6.93669 9.91034
lclavicle 6.70898e-015 -7.95139e-016
lhumerus 20.3313 -13.9273 58.1879
lradius 86.621
lwrist -29.3436
lhand -23.3811 44.049
lfingers 7.12502
lthumb 3.07503 74.0066
rfemur 0.937226 -2.95339 19.7029
rtibia 18.6556
rfoot -13.7294 -11.8738
rtoes -0.833886
lfemur 1.43082 0.91651 -14.7006
ltibia 19.7814
lfoot -16.1812 4.50522
ltoes -11.376
822
root 7.47783 17.523 -15.5125 -2.73647 -3.26962 -1.39344
lowerback 2.62246 -0.174658 -0.651216
upperback -1.42672 -0.176446 3.02503
thorax -2.928 -0.0442146 3.49405
lowerneck -15.0026 -3.02344 -9.6494
upperneck 18.2332 -3.17268 6.23864
head 8.40043 -1.5468 3.3294
rclavicle -1.36664e-014 2.54444e-014
rhumerus 24.2805 16.1127 -48.5097
rradius 91.2219
rwrist 11.7862
rhand -19.4395 39.7734
rfingers 7.12502
rthumb 6.88088 9.90522
lclavicle -1.36664e-014 2.54444e-014
lhumerus 20.556 -13.6116 58.2543
lradius 86.6982
lwrist -29.362
lhand -22.2263 44.0882
lfingers 7.12502
lthumb 4.19023 74.0267
rfemur 0.764796 -2.79095 19.8845
rtibia 18.7731
rfoot -13.6497 -12.0162
rtoes -1.60437
lfemur 1.28395 0.952662 -14.5663
ltibia 19.7904
lfoot -16.0456 4.60971
ltoes -12.1848
823
root 7.47613 17.5215 -15.5149 -2.62451 -3.26874 -1.30469
lowerback 2.53924 -0.118392 -0.709733
upperback -1.36875 -0.106719 2.97932
thorax -2.82575 -0.0103795 3.47503
lowerneck -15.3526 -3.07984 -10.0318
upperneck 18.3972 -3.21212 6.63646
head 8.53513 -1.54814 3.52623
rclavicle 3.67752e-015 8.74653e-015
rhumerus 24.3059 15.6617 -48.5481
rradius 91.2032
rwrist 11.8465
rhand -19.4336 39.7323
rfingers 7.12502
rthumb 6.88659 9.86429
lclavicle 3.67752e-015 8.74653e-015
lhumerus 20.7504 -13.3349 58.3514
lradius 86.833
lwrist -29.7447
lhand -20.5972 43.9833
lfingers 7.12502
lthumb 5.76323 73.8849
rfemur 0.519619 -2.94885 19.7661
rtibia 18.9856
rfoot -13.5766 -11.8311
rtoes -1.89143
lfemur 1.21339 0.985083 -14.6616
ltibia 19.6951
lfoot -15.9168 4.69435
ltoes -12.6278
824
root 7.47035 17.5217 -15.5233 -2.54938 -3.12438 -1.01608
lowerback 2.54553 -0.117885 -1.03495
upperback -1.40658 -0.120136 2.87414
thorax -2.86716 -0.0109787 3.55075
lowerneck -15.4038 -3.07528 -10.2407
upperneck 18.5886 -3.2065 6.8716
head 8.61578 -1.53771 3.64607
rclavicle 8.00108e-015 -1.90833e-014
rhumerus 24.2168 15.3708 -48.692
rradius 91.1996
rwrist 12.0555
rhand -19.4177 39.5954
rfingers 7.12502
rthumb 6.90199 9.72789
lclavicle 8.00108e-015 -1.90833e-014
lhumerus 20.7537 -13.0618 58.4407
lradius 87.0525
lwrist -30.1999
lhand -18.5779 43.4317
lfingers 7.12502
lthumb 7.71257 73.2711
rfemur 0.276198 -3.17851 19.4484
rtibia 19.212
rfoot -13.5139 -11.8212
rtoes -2.58422
lfemur 1.13488 1.01139 -14.9415
ltibia 19.5806
lfoot -15.8085 4.50616
ltoes -12.2686
825
root 7.45437 17.5257 -15.5487 -2.55696 -2.83361 -0.628024
lowerback 2.86114 -0.197775 -1.64632
upperback -1.43077 -0.252791 2.7889
thorax -3.05949 -0.0629413 3.81797
lowerneck -15.2866 -3.04484 -9.74787
upperneck 18.3828 -3.15702 6.25163
head 8.50291 -1.54203 3.35313
rclavicle 7.85199e-015 1.43125e-014
rhumerus 24.3342 15.1204 -48.7076
rradius 91.1847
rwrist 12.3983
rhand -19.4074 39.476
rfingers 7.12502
rthumb 6.91193 9.60887
lclavicle 7.85199e-015 1.43125e-014
lhumerus 20.8327 -12.6734 58.3619
lradius 87.2872
lwrist -30.3349
lhand -16.6504 42.8803
lfingers 7.12502
lthumb 9.57263 72.6428
rfemur 0.105357 -3.17471 19.1303
rtibia 19.4348
rfoot -13.7062 -12.0878
rtoes -2.49326
lfemur 0.979079 1.17153 -15.2337
ltibia 19.5154
lfoot -15.6336 4.0745
ltoes -12.2106
826
root 7.46222 17.5305 -15.5453 -2.5063 -3.3971 -0.449012
lowerback 2.75679 -0.0521738 -1.72445
upperback -1.36081 -0.0629856 2.75635
thorax -2.94328 0.0303687 3.81688
lowerneck -15.2177 -3.03762 -9.4498
upperneck 18.1385 -3.1191 5.78304
head 8.39324 -1.54878 3.14433
rclavicle 5.86415e-015 -9.54166e-015
rhumerus 24.5644 14.935 -48.6017
rradius 91.1616
rwrist 12.6794
rhand -19.4031 39.3706
rfingers 7.12502
rthumb 6.91608 9.50362
lclavicle 5.86415e-015 -9.54166e-015
lhumerus 20.974 -12.2113 57.9562
lradius 87.5943
lwrist -29.9082
lhand -14.8163 42.6111
lfingers 7.12502
lthumb 11.3419 72.2844
rfemur -0.120076 -2.62949 18.9179
rtibia 19.5768
rfoot -13.8797 -11.8946
rtoes -1.48556
lfemur 0.983673 1.00878 -15.5775
ltibia 19.5312
lfoot -15.614 4.91697
ltoes -12.5804
827
root 7.46179 17.5327 -15.5566 -2.22207 -3.60163 -0.981117
lowerback 2.62424 -0.0557687 -1.19927
upperback -1.37594 -0.041776 2.95035
thorax -2.88565 0.0319948 3.71937
lowerneck -15.2788 -3.01312 -10.1643
upperneck 18.0572 -3.0597 6.53232
head 8.39449 -1.49286 3.52574
rclavicle 9.44227e-016 -6.36111e-015
rhumerus 24.8688 14.8388 -48.5896
rradius 91.118
rwrist 12.7799
rhand -19.4549 39.2239
rfingers 7.12502
rthumb 6.86599 9.35523
lclavicle 9.44227e-016 -6.36111e-015
lhumerus 21.1086 -11.6666 57.6931
lradius 87.7814
lwrist -29.5065
lhand -13.1653 42.2433
lfingers 7.12502
lthumb 12.9339 71.8225
rfemur -0.498141 -2.30878 19.5695
rtibia 19.5964
rfoot -13.798 -12.008
rtoes -1.08563
lfemur 0.638912 1.07749 -14.9809
ltibia 19.6624
lfoot -15.586 5.00338
ltoes -12.4622
828
root 7.46164 17.5319 -15.5608 -2.0945 -3.52263 -1.39091
lowerback 2.54747 -0.127278 -0.781955
upperback -1.37127 -0.119428 3.05051
thorax -2.83213 -0.0145837 3.59057
lowerneck -15.1816 -2.96821 -10.5198
upperneck 17.9749 -3.01158 6.97656
head 8.35654 -1.45077 3.74256
rclavicle -1.49089e-016 -2.06736e-014
rhumerus 25.0213 14.7855 -48.6273
rradius 91.0452
rwrist 12.577
rhand -19.6541 39.2947
rfingers 7.12502
rthumb 6.67371 9.41984
lclavicle -1.49089e-016 -2.06736e-014
lhumerus 21.1194 -11.3409 57.6754
lradius 87.9134
lwrist -29.5471
lhand -11.6172 41.92
lfingers 7.12502
lthumb 14.4259 71.3987
rfemur -0.573726 -2.37755 20.0368
rtibia 19.4801
rfoot -13.5978 -12.0971
rtoes -1.81519
lfemur 0.400629 1.14891 -14.4939
ltibia 19.8982
lfoot -15.6829 4.76928
ltoes -12.1504
